<svg xmlns="http://www.w3.org/2000/svg" width="800" height="920" viewBox="0 0 400 460">
  <!-- Original artwork — hand-authored, copyright-clean. -->
  <g fill="#fff" stroke="#000" stroke-width="5" stroke-linejoin="round" stroke-linecap="round">
    <path d="M288,374 Q352,352 338,300 Q330,334 282,348 Z"/>
    <ellipse cx="160" cy="442" rx="34" ry="22"/><ellipse cx="240" cy="442" rx="34" ry="22"/>
    <ellipse cx="116" cy="356" rx="26" ry="46"/><ellipse cx="284" cy="356" rx="26" ry="46"/>
    <ellipse cx="200" cy="360" rx="96" ry="92"/>
    <ellipse cx="200" cy="376" rx="54" ry="56"/>
    <ellipse cx="80" cy="158" rx="32" ry="62"/><ellipse cx="320" cy="158" rx="32" ry="62"/>
    <ellipse cx="200" cy="150" rx="128" ry="118"/>
    <ellipse cx="200" cy="200" rx="52" ry="40"/>
  </g>
  <g fill="#000" stroke="none">
    <ellipse cx="156" cy="142" rx="17" ry="23"/><ellipse cx="244" cy="142" rx="17" ry="23"/><ellipse cx="200" cy="184" rx="14" ry="10"/>
  </g>
  <g fill="#fff" stroke="none">
    <circle cx="162" cy="133" r="6"/><circle cx="250" cy="133" r="6"/>
  </g>
  <g fill="none" stroke="#000" stroke-width="5" stroke-linecap="round" stroke-linejoin="round">
    <path d="M200,193 L200,208"/><path d="M200,208 Q182,222 170,212"/><path d="M200,208 Q218,222 230,212"/>
  </g>
</svg>
