<svg xmlns="http://www.w3.org/2000/svg" width="800" height="920" viewBox="0 0 400 460">
  <!-- Original artwork — hand-authored, copyright-clean. -->
  <g fill="#fff" stroke="#000" stroke-width="5" stroke-linejoin="round" stroke-linecap="round">
    
    <ellipse cx="160" cy="442" rx="34" ry="22"/><ellipse cx="240" cy="442" rx="34" ry="22"/>
    <ellipse cx="116" cy="356" rx="26" ry="46"/><ellipse cx="284" cy="356" rx="26" ry="46"/>
    <ellipse cx="200" cy="360" rx="96" ry="92"/>
    <ellipse cx="200" cy="376" rx="54" ry="56"/>
    
    <ellipse cx="200" cy="150" rx="128" ry="118"/>
    <circle cx="142" cy="72" r="40"/><circle cx="258" cy="72" r="40"/>
  </g>
  <g fill="#000" stroke="none">
    <circle cx="142" cy="80" r="15"/><circle cx="258" cy="80" r="15"/><circle cx="186" cy="150" r="4"/><circle cx="214" cy="150" r="4"/>
  </g>
  <g fill="#fff" stroke="none">
    <circle cx="148" cy="73" r="6"/><circle cx="264" cy="73" r="6"/>
  </g>
  <g fill="none" stroke="#000" stroke-width="5" stroke-linecap="round" stroke-linejoin="round">
    <path d="M122,168 Q200,238 278,168"/>
  </g>
</svg>
