<svg xmlns="http://www.w3.org/2000/svg" width="800" height="920" viewBox="0 0 400 460">
  <!-- Original artwork — hand-authored, copyright-clean. -->
  <g fill="#fff" stroke="#000" stroke-width="5" stroke-linejoin="round" stroke-linecap="round">
    <path d="M200.0,-2.0 L230.5,36.0 L276.0,18.4 L283.4,66.6 L331.6,74.0 L314.0,119.5 L352.0,150.0 L314.0,180.5 L331.6,226.0 L283.4,233.4 L276.0,281.6 L230.5,264.0 L200.0,302.0 L169.5,264.0 L124.0,281.6 L116.6,233.4 L68.4,226.0 L86.0,180.5 L48.0,150.0 L86.0,119.5 L68.4,74.0 L116.6,66.6 L124.0,18.4 L169.5,36.0 Z"/><path d="M285,374 Q356,360 348,304 Q360,360 292,390 Z"/><circle cx="352" cy="300" r="18"/>
    <ellipse cx="160" cy="442" rx="34" ry="22"/><ellipse cx="240" cy="442" rx="34" ry="22"/>
    <ellipse cx="116" cy="356" rx="26" ry="46"/><ellipse cx="284" cy="356" rx="26" ry="46"/>
    <ellipse cx="200" cy="360" rx="96" ry="92"/>
    <ellipse cx="200" cy="376" rx="54" ry="56"/>
    <circle cx="120" cy="74" r="24"/><circle cx="280" cy="74" r="24"/>
    <ellipse cx="200" cy="150" rx="128" ry="118"/>
    <ellipse cx="200" cy="200" rx="52" ry="40"/>
  </g>
  <g fill="#000" stroke="none">
    <ellipse cx="156" cy="142" rx="17" ry="23"/><ellipse cx="244" cy="142" rx="17" ry="23"/><ellipse cx="200" cy="184" rx="14" ry="10"/>
  </g>
  <g fill="#fff" stroke="none">
    <circle cx="162" cy="133" r="6"/><circle cx="250" cy="133" r="6"/>
  </g>
  <g fill="none" stroke="#000" stroke-width="5" stroke-linecap="round" stroke-linejoin="round">
    <path d="M200,193 L200,208"/><path d="M200,208 Q182,222 170,212"/><path d="M200,208 Q218,222 230,212"/><path d="M148,196 L96,188"/><path d="M148,208 L96,210"/><path d="M252,196 L304,188"/><path d="M252,208 L304,210"/>
  </g>
</svg>
