<svg xmlns="http://www.w3.org/2000/svg" width="800" height="920" viewBox="0 0 400 460">
  <!-- Original artwork — hand-authored, copyright-clean. -->
  <g fill="#fff" stroke="#000" stroke-width="5" stroke-linejoin="round" stroke-linecap="round">
    
    <ellipse cx="160" cy="442" rx="34" ry="22"/><ellipse cx="240" cy="442" rx="34" ry="22"/>
    <ellipse cx="116" cy="356" rx="26" ry="46"/><ellipse cx="284" cy="356" rx="26" ry="46"/>
    <ellipse cx="200" cy="360" rx="96" ry="92"/>
    <ellipse cx="200" cy="376" rx="54" ry="56"/>
    <circle cx="108" cy="58" r="38"/><circle cx="292" cy="58" r="38"/>
    <ellipse cx="200" cy="150" rx="128" ry="118"/>
    <circle cx="108" cy="62" r="19"/><circle cx="292" cy="62" r="19"/><ellipse cx="200" cy="202" rx="42" ry="30"/>
  </g>
  <g fill="#000" stroke="none">
    <ellipse cx="154" cy="150" rx="30" ry="37"/><ellipse cx="246" cy="150" rx="30" ry="37"/><ellipse cx="200" cy="188" rx="15" ry="10"/>
  </g>
  <g fill="#fff" stroke="none">
    <circle cx="162" cy="142" r="7"/><circle cx="238" cy="142" r="7"/>
  </g>
  <g fill="none" stroke="#000" stroke-width="5" stroke-linecap="round" stroke-linejoin="round">
    <path d="M200,196 L200,210"/><path d="M200,210 Q186,222 176,214"/><path d="M200,210 Q214,222 224,214"/>
  </g>
</svg>
