<svg xmlns="http://www.w3.org/2000/svg" width="800" height="920" viewBox="0 0 400 460">
  <!-- Original artwork — hand-authored, copyright-clean. -->
  <g fill="#fff" stroke="#000" stroke-width="5" stroke-linejoin="round" stroke-linecap="round">
    <circle cx="300" cy="404" r="26"/>
    <ellipse cx="160" cy="442" rx="34" ry="22"/><ellipse cx="240" cy="442" rx="34" ry="22"/>
    <ellipse cx="116" cy="356" rx="26" ry="46"/><ellipse cx="284" cy="356" rx="26" ry="46"/>
    <ellipse cx="200" cy="360" rx="96" ry="92"/>
    <ellipse cx="200" cy="376" rx="54" ry="56"/>
    <ellipse cx="158" cy="52" rx="26" ry="78"/><ellipse cx="242" cy="52" rx="26" ry="78"/>
    <ellipse cx="200" cy="150" rx="128" ry="118"/>
    <ellipse cx="158" cy="58" rx="12" ry="58"/><ellipse cx="242" cy="58" rx="12" ry="58"/>
  </g>
  <g fill="#000" stroke="none">
    <ellipse cx="156" cy="142" rx="17" ry="23"/><ellipse cx="244" cy="142" rx="17" ry="23"/><path d="M192,182 L208,182 L200,193 Z"/>
  </g>
  <g fill="#fff" stroke="none">
    <circle cx="162" cy="133" r="6"/><circle cx="250" cy="133" r="6"/>
  </g>
  <g fill="none" stroke="#000" stroke-width="5" stroke-linecap="round" stroke-linejoin="round">
    <path d="M200,193 L200,202"/><path d="M200,202 Q188,212 180,205"/><path d="M200,202 Q212,212 220,205"/>
  </g>
</svg>
